<?xml version="1.0" standalone="no"?>
<!DOCTYPE svg PUBLIC "-//W3C//DTD SVG 20010904//EN"
 "http://www.w3.org/TR/2001/REC-SVG-20010904/DTD/svg10.dtd">
<svg version="1.0" xmlns="http://www.w3.org/2000/svg"
 width="200.000000pt" height="200.000000pt" viewBox="0 0 200.000000 200.000000"
 preserveAspectRatio="xMidYMid meet">
<metadata>
Created by potrace 1.11, written by Peter Selinger 2001-2013
</metadata>
<g transform="translate(0.000000,200.000000) scale(0.100000,-0.100000)"
fill="#000000" stroke="none">
<path d="M1500 1555 c-168 -62 -449 -165 -625 -229 -176 -65 -414 -151 -530
-193 -123 -44 -217 -84 -227 -95 -23 -26 -23 -61 1 -82 10 -9 120 -51 244 -92
124 -42 232 -81 240 -87 8 -7 52 -102 97 -212 45 -110 88 -210 96 -222 27 -43
64 -31 167 55 161 132 180 147 189 144 5 -1 78 -36 161 -77 84 -41 164 -75
179 -75 15 0 39 10 54 23 24 21 43 84 182 588 85 310 154 577 153 594 -2 34
-23 61 -54 67 -12 2 -158 -46 -327 -107z m50 -70 c0 -2 -33 -26 -73 -54 -85
-57 -100 -72 -91 -95 16 -43 38 -37 155 41 l114 75 -242 -237 c-248 -243 -269
-270 -226 -294 30 -16 24 -21 401 353 142 140 172 166 166 141 -17 -76 -254
-939 -259 -943 -3 -3 -113 48 -245 114 l-240 119 75 75 c82 82 94 115 49 126
-27 7 -35 1 -169 -134 l-62 -63 -28 -117 c-15 -64 -31 -123 -34 -130 -6 -10
-133 279 -143 326 -3 13 42 45 446 319 237 160 260 184 206 213 -20 11 -147
-71 -570 -364 -69 -47 -130 -89 -137 -92 -7 -3 -106 25 -220 63 l-207 70 94
36 c52 20 282 104 510 187 228 83 485 178 570 210 85 32 156 59 158 59 1 1 2
-1 2 -4z m-529 -875 c22 -12 38 -24 35 -28 -12 -20 -129 -104 -123 -90 3 10
12 44 19 78 6 33 16 60 20 60 5 0 27 -9 49 -20z"/>
</g>
</svg>
