<svg xmlns="http://www.w3.org/2000/svg" xmlns:xlink="http://www.w3.org/1999/xlink" version="1.1" x="0px" y="0px" viewBox="0 0 1024 1280" style="enable-background:new 0 0 1024 1024;" xml:space="preserve"><g><g><g><path d="M672.6,820c0,30,0,60.1,0,90.1c0,4.9,0.3,10-0.3,15c0.4-2.7,0.7-5.3,1.1-8c-0.4,2.2-1,4.2-1.8,6.3     c1-2.4,2-4.8,3-7.2c-0.6,1.2-1.2,2.3-1.8,3.4c-2.3,4.4,5.4-5.9,1.1-1.6c-4.1,4.1,4.7-2.6,2.1-1.4c-1.3,0.6-2.6,1.5-4,2.2     c2.4-1,4.8-2,7.2-3c-2.1,0.8-4.1,1.4-6.3,1.8c2.7-0.4,5.3-0.7,8-1.1c-11.7,1.5-24.1,0.3-35.8,0.3c-26.5,0-53,0-79.5,0     c-59.6,0-119.2,0-178.8,0c-9.8,0-19.6,0-29.4,0c-4.7,0-9.5,0.3-14.2-0.3c2.7,0.4,5.3,0.7,8,1.1c-2.2-0.4-4.2-1-6.3-1.8     c2.4,1,4.8,2,7.2,3c-1.2-0.6-2.3-1.2-3.4-1.8c-4.4-2.3,5.9,5.4,1.6,1.1c-4.1-4.1,2.6,4.7,1.4,2.1c-0.6-1.3-1.5-2.6-2.2-4     c1,2.4,2,4.8,3,7.2c-0.8-2.1-1.4-4.1-1.8-6.3c0.4,2.7,0.7,5.3,1.1,8c-0.6-4.3-0.3-8.7-0.3-13.1c0-8.1,0-16.2,0-24.4     c0-18.7,0-37.4,0-56.1c0-5.2-0.4-10.5,0.3-15.6c-0.4,2.7-0.7,5.3-1.1,8c0.4-2.2,1-4.2,1.8-6.3c-1,2.4-2,4.8-3,7.2     c0.6-1.2,1.2-2.3,1.8-3.4c2.3-4.4-5.4,5.9-1.1,1.6c4.1-4.1-4.7,2.6-2.1,1.4c1.3-0.6,2.6-1.5,4-2.2c-2.4,1-4.8,2-7.2,3     c2.1-0.8,4.1-1.4,6.3-1.8c-2.7,0.4-5.3,0.7-8,1.1c5.9-0.8,12-0.3,17.9-0.3c10,0,20,0,30,0c5.9,0,11.8,0.1,17.7,0     c24.8-0.5,46-16.3,53.6-39.9c3.1-9.6,2.3-20.6,2.3-30.6c0-14.7,0-29.3,0-44c0-40.2,0-80.4,0-120.6c0-24,0.4-48.1,0-72.1     c-0.4-19.4-9.7-36.6-25.8-47.4c-10.7-7.2-23.2-8.8-35.7-8.8c-17.6,0-35.2,0-52.9,0c-2.4,0-4.7,0-7.1-0.3c2.7,0.4,5.3,0.7,8,1.1     c-2.2-0.4-4.2-1-6.3-1.8c2.4,1,4.8,2,7.2,3c-1.2-0.6-2.3-1.2-3.4-1.8c-4.4-2.3,5.9,5.4,1.6,1.1c-4.1-4.1,2.6,4.7,1.4,2.1     c-0.6-1.3-1.5-2.6-2.2-4c1,2.4,2,4.8,3,7.2c-0.8-2.1-1.4-4.1-1.8-6.3c0.4,2.7,0.7,5.3,1.1,8c-0.6-4.3-0.3-8.7-0.3-13.1     c0-8.1,0-16.2,0-24.4c0-18.7,0-37.4,0-56.1c0-5.2-0.4-10.5,0.3-15.6c-0.4,2.7-0.7,5.3-1.1,8c0.4-2.2,1-4.2,1.8-6.3     c-1,2.4-2,4.8-3,7.2c0.6-1.2,1.2-2.3,1.8-3.4c2.3-4.4-5.4,5.9-1.1,1.6c4.1-4.1-4.7,2.6-2.1,1.4c1.3-0.6,2.6-1.5,4-2.2     c-2.4,1-4.8,2-7.2,3c2.1-0.8,4.1-1.4,6.3-1.8c-2.7,0.4-5.3,0.7-8,1.1c4.9-0.6,10-0.3,14.9-0.3c9.5,0,19,0,28.5,0     c15.9,0,31.8,0,47.7,0c30.1,0,60.1,0,90.2,0c9.3,0,18.5,0,27.8,0c4.8,0,9.7-0.3,14.4,0.3c-2.7-0.4-5.3-0.7-8-1.1     c2.2,0.4,4.2,1,6.3,1.8c-2.4-1-4.8-2-7.2-3c1.2,0.6,2.3,1.2,3.4,1.8c4.4,2.3-5.9-5.4-1.6-1.1c4.1,4.1-2.6-4.7-1.4-2.1     c0.6,1.3,1.5,2.6,2.2,4c-1-2.4-2-4.8-3-7.2c0.8,2.1,1.4,4.1,1.8,6.3c-0.4-2.7-0.7-5.3-1.1-8c0.8,6.2,0.3,12.7,0.3,19     c0,13.8,0,27.7,0,41.5c0,43.3,0,86.6,0,129.8c0,45.8,0,91.7,0,137.5c0,26,0,52,0,78c0,6.2,0.4,12.6,2.3,18.6     c7.7,24,29.2,39.7,54.4,39.9c19.1,0.2,38.3,0,57.5,0c2.8,0,5.5,0,8.3,0.3c-2.7-0.4-5.3-0.7-8-1.1c2.2,0.4,4.2,1,6.3,1.8     c-2.4-1-4.8-2-7.2-3c1.2,0.6,2.3,1.2,3.4,1.8c4.4,2.3-5.9-5.4-1.6-1.1c4.1,4.1-2.6-4.7-1.4-2.1c0.6,1.3,1.5,2.6,2.2,4     c-1-2.4-2-4.8-3-7.2c0.8,2.1,1.4,4.1,1.8,6.3c-0.4-2.7-0.7-5.3-1.1-8C672.4,817.3,672.5,818.6,672.6,820     c0.4,15.7,13.5,30.7,30,30c15.9-0.7,30.4-13.2,30-30c-0.5-20-11-39.7-29.2-49c-9.8-5.1-20.1-6.8-30.9-6.8c-15.4,0-30.8,0-46.2,0     c-5.3,0-10.9,0.4-16.2-0.3c2.7,0.4,5.3,0.7,8,1.1c-2.2-0.4-4.2-1-6.3-1.8c2.4,1,4.8,2,7.2,3c-1.2-0.6-2.3-1.2-3.4-1.8     c-4.4-2.3,5.9,5.4,1.6,1.1c-4.1-4.1,2.6,4.7,1.4,2.1c-0.6-1.3-1.5-2.6-2.2-4c1,2.4,2,4.8,3,7.2c-0.8-2.1-1.4-4.1-1.8-6.3     c0.4,2.7,0.7,5.3,1.1,8c-0.7-5-0.3-10.1-0.3-15.1c0-10.8,0-21.6,0-32.3c0-35.1,0-70.3,0-105.4c0-41.5,0-83,0-124.5     c0-33,0-66,0-99c0-8.9,0-17.7,0-26.6c0-17.7-4.6-35.2-18.7-47.1c-11.4-9.6-24.7-14.2-39.6-14.2c-5.6,0-11.1,0-16.7,0     c-19.7,0-39.4,0-59,0c-24.2,0-48.4,0-72.7,0c-18.9,0-37.8,0-56.7,0c-7.9,0-15.9-0.1-23.5,2.3c-23.7,7.6-39.4,28.7-39.9,53.6     c-0.7,31.4,0,62.8,0,94.2c0,7.8,0,15.7,2.5,23.3c7.8,23.4,28.8,38.8,53.4,39.3c16,0.3,32.1,0,48.2,0c5.8,0,11.7-0.4,17.5,0.3     c-2.7-0.4-5.3-0.7-8-1.1c2.2,0.4,4.2,1,6.3,1.8c-2.4-1-4.8-2-7.2-3c1.2,0.6,2.3,1.2,3.4,1.8c4.4,2.3-5.9-5.4-1.6-1.1     c4.1,4.1-2.6-4.7-1.4-2.1c0.6,1.3,1.5,2.6,2.2,4c-1-2.4-2-4.8-3-7.2c0.8,2.1,1.4,4.1,1.8,6.3c-0.4-2.7-0.7-5.3-1.1-8     c1.2,9.1,0.3,18.8,0.3,28c0,20.2,0,40.5,0,60.7c0,45.8,0,91.6,0,137.4c0,11.1,1.1,22.8-0.3,33.8c0.4-2.7,0.7-5.3,1.1-8     c-0.4,2.2-1,4.2-1.8,6.3c1-2.4,2-4.8,3-7.2c-0.6,1.2-1.2,2.3-1.8,3.4c-2.3,4.4,5.4-5.9,1.1-1.6c-4.1,4.1,4.7-2.6,2.1-1.4     c-1.3,0.6-2.6,1.5-4,2.2c2.4-1,4.8-2,7.2-3c-2.1,0.8-4.1,1.4-6.3,1.8c2.7-0.4,5.3-0.7,8-1.1c-11.5,1.5-23.8,0.3-35.4,0.3     c-11.3,0-23.1-0.9-34.4,0.3c-19.1,2.1-36.9,12.2-45.5,30c-4.3,9-6.3,18.3-6.3,28.3c0,12,0,23.9,0,35.9c0,15.3,0,30.6,0,45.8     c0,14.7-0.4,28.2,6.3,42c9.5,19.6,30.3,30.3,51.5,30.3c5.5,0,11,0,16.5,0c55.3,0,110.5,0,165.8,0c47.2,0,94.4,0,141.6,0     c16,0,30.9-4.7,42.7-15.9c11-10.5,16.5-25.3,16.8-40.2c0.1-3.3,0-6.6,0-9.9c0-28,0-56,0-84c0-2.3,0-4.5,0-6.8     c0-15.7-13.8-30.7-30-30C686.3,790.7,672.6,803.2,672.6,820z"/></g></g><g><g><path d="M558.3,100.6c0,31.2,0,62.5,0,93.7c0,4.9,0.3,9.9-0.2,14.8c0.4-2.7,0.7-5.3,1.1-8     c-0.3,2.2-0.9,4.3-1.7,6.4c1-2.4,2-4.8,3-7.2c-0.5,1.2-1.2,2.3-1.8,3.4c-2.2,4.4,4.8-5.7,1.5-2.1c-3.2,3.5,6.5-3.8,2.1-1.5     c-1.2,0.6-2.2,1.3-3.4,1.8c2.4-1,4.8-2,7.2-3c-2.1,0.8-4.2,1.4-6.4,1.7c2.7-0.4,5.3-0.7,8-1.1c-12.7,1.1-25.8,0.2-38.5,0.2     c-19.5,0-38.9,0-58.4,0c-5.1,0-10.3,0.3-15.3-0.2c2.7,0.4,5.3,0.7,8,1.1c-2.2-0.3-4.3-0.9-6.4-1.7c2.4,1,4.8,2,7.2,3     c-1.2-0.5-2.3-1.2-3.4-1.8c-4.4-2.2,5.7,4.8,2.1,1.5c-3.5-3.2,3.8,6.5,1.5,2.1c-0.6-1.2-1.3-2.2-1.8-3.4c1,2.4,2,4.8,3,7.2     c-0.8-2.1-1.4-4.2-1.7-6.4c0.4,2.7,0.7,5.3,1.1,8c-1.1-12.5-0.2-25.4-0.2-38c0-19.4,0-38.8,0-58.1c0-5-0.3-10.2,0.2-15.2     c-0.4,2.7-0.7,5.3-1.1,8c0.3-2.2,0.9-4.3,1.7-6.4c-1,2.4-2,4.8-3,7.2c0.5-1.2,1.2-2.3,1.8-3.4c2.2-4.4-4.8,5.7-1.5,2.1     c3.2-3.5-6.5,3.8-2.1,1.5c1.2-0.6,2.2-1.3,3.4-1.8c-2.4,1-4.8,2-7.2,3c2.1-0.8,4.2-1.4,6.4-1.7c-2.7,0.4-5.3,0.7-8,1.1     c12.7-1.1,25.8-0.2,38.5-0.2c19.5,0,38.9,0,58.4,0c5.1,0,10.3-0.3,15.3,0.2c-2.7-0.4-5.3-0.7-8-1.1c2.2,0.3,4.3,0.9,6.4,1.7     c-2.4-1-4.8-2-7.2-3c1.2,0.5,2.3,1.2,3.4,1.8c4.4,2.2-5.7-4.8-2.1-1.5c3.5,3.2-3.8-6.5-1.5-2.1c0.6,1.2,1.3,2.2,1.8,3.4     c-1-2.4-2-4.8-3-7.2c0.8,2.1,1.4,4.2,1.7,6.4c-0.4-2.7-0.7-5.3-1.1-8C558.3,98.8,558.3,99.7,558.3,100.6     c0.5,15.7,13.5,30.7,30,30c15.9-0.7,30.5-13.2,30-30c-0.9-29.7-23.9-52.8-53.6-53.4c-5.9-0.1-11.9,0-17.8,0c-23.3,0-46.7,0-70,0     c-6.1,0-12.3-0.1-18.4,0c-29,0.6-51.8,22.5-53.7,51.4c-1,16.4-0.1,33.1-0.1,49.5c0,19.1-0.1,38.3,0,57.4     c0.2,24,16,47.1,40.1,52.7c8.3,1.9,16.3,1.7,24.6,1.7c22.8,0,45.6,0,68.4,0c8.2,0,16.3,0,24.5,0c19.8,0,39-9,49-26.8     c6.2-11,7.1-22.6,7.1-34.7c0-10.2,0-20.3,0-30.5c0-21,0-42,0-63.1c0-1.4,0-2.8,0-4.2c0-15.7-13.8-30.7-30-30     C572.1,71.3,558.3,83.8,558.3,100.6z"/></g></g></g></svg>