<svg xmlns="http://www.w3.org/2000/svg" xmlns:xlink="http://www.w3.org/1999/xlink" version="1.1" x="0px" y="0px" viewBox="0 0 100 125" style="enable-background:new 0 0 100 100;" xml:space="preserve"><g><path d="M7.03,53.111c0.035,0.014,0.07,0.026,0.105,0.039l23.38,7.805l8.878,21.452c0.497,1.079,1.561,1.749,2.722,1.749   c0.124,0,0.249-0.008,0.374-0.023c0.679-0.084,1.281-0.395,1.74-0.852c0.089-0.053,0.176-0.11,0.258-0.178l12.785-10.549   l15.184,7.554c0.057,0.027,0.114,0.053,0.173,0.076c0.556,0.213,1.14,0.319,1.722,0.319c0.764,0,1.525-0.183,2.217-0.543   c1.213-0.633,2.098-1.757,2.414-3.04l15.117-55.494c0.358-1.316-0.043-2.708-1.048-3.632c-1.003-0.923-2.425-1.207-3.707-0.738   L6.995,47.146C5.775,47.647,4.992,48.822,5,50.139C5.008,51.457,5.805,52.624,7.03,53.111z M34.486,60.09l48.792-33.208   L46.225,63.32c-0.603,0.599-1.029,1.351-1.234,2.173l-3.109,12.468L34.486,60.09z M46.41,76.331l2.037-8.168l4.905,2.44   L46.41,76.331z M75.11,75.915c-0.073,0.294-0.277,0.438-0.393,0.499c-0.11,0.058-0.326,0.138-0.59,0.059L50.506,64.72   l37.772-37.145L75.11,75.915z M78.556,25.257L31.714,57.138l-21.119-7.05L78.556,25.257z"/></g></svg>