<svg xmlns:dc="http://purl.org/dc/elements/1.1/" xmlns:cc="http://creativecommons.org/ns#" xmlns:rdf="http://www.w3.org/1999/02/22-rdf-syntax-ns#" xmlns:svg="http://www.w3.org/2000/svg" xmlns="http://www.w3.org/2000/svg" xmlns:sodipodi="http://sodipodi.sourceforge.net/DTD/sodipodi-0.dtd" xmlns:inkscape="http://www.inkscape.org/namespaces/inkscape" version="1.1" x="0px" y="0px" viewBox="0 0 100 125"><g transform="translate(0,-952.36218)"><path style="text-indent:0;text-transform:none;direction:ltr;block-progression:tb;baseline-shift:baseline;color:#000000;enable-background:accumulate;" d="M 15.8125,978.3421 A 2.0001998,2.001037 0 0 0 14,980.34294 l 0,21.00876 a 2.0001998,2.001037 0 0 0 2,2.0009 l 11.5625,0 c -1.588299,6.4174 -6.706675,9.8325 -12.3125,12.0988 a 2.0001998,2.001037 0 0 0 -0.46875,3.4389 l 9,7.0342 a 2.0001998,2.001037 0 0 0 1.75,0.3439 c 6.780269,-1.8273 11.975163,-4.6069 15.4375,-8.91 C 44.431087,1013.0553 46,1007.3999 46,1000.3513 l 0,-20.00836 a 2.0001998,2.001037 0 0 0 -2,-2.00084 l -28,0 a 2.0001998,2.001037 0 0 0 -0.1875,0 z m 40,0 A 2.0001998,2.001037 0 0 0 54,980.34294 l 0,21.00876 a 2.0001998,2.001037 0 0 0 2,2.0009 l 11.5625,0 c -1.588299,6.4174 -6.706675,9.8325 -12.3125,12.0988 a 2.0001998,2.001037 0 0 0 -0.46875,3.4389 l 9,7.0342 a 2.0001998,2.001037 0 0 0 1.75,0.3439 c 6.780269,-1.8273 11.975163,-4.6069 15.4375,-8.91 C 84.431087,1013.0553 86,1007.3999 86,1000.3513 l 0,-20.00836 a 2.0001998,2.001037 0 0 0 -2,-2.00084 l -28,0 a 2.0001998,2.001037 0 0 0 -0.1875,0 z M 18,982.34377 l 24,0 0,18.00753 c 0,6.4625 -1.385254,11.031 -4.15625,14.4748 -2.622035,3.2587 -6.689407,5.6043 -12.4375,7.2843 l -5.6875,-4.4393 c 5.854922,-2.9923 11.401581,-7.8343 12.28125,-16.1318 a 2.0001998,2.001037 0 0 0 -2,-2.18841 l -12,0 0,-17.00712 z m 40,0 24,0 0,18.00753 c 0,6.4625 -1.385254,11.031 -4.15625,14.4748 -2.622035,3.2587 -6.689407,5.6043 -12.4375,7.2843 l -5.6875,-4.4393 c 5.854922,-2.9923 11.401581,-7.8343 12.28125,-16.1318 a 2.0001998,2.001037 0 0 0 -2,-2.18841 l -12,0 0,-17.00712 z" fill="#000000" fill-opacity="1" stroke="none" marker="none" visibility="visible" display="inline" overflow="visible"/></g></svg>